<?xml version="1.0" encoding="UTF-8"?>
<!-- Created with Inkscape (http://www.inkscape.org/) -->
<svg id="svg4838" width="700" height="420" version="1.0" xmlns="http://www.w3.org/2000/svg" xmlns:cc="http://creativecommons.org/ns#" xmlns:dc="http://purl.org/dc/elements/1.1/" xmlns:rdf="http://www.w3.org/1999/02/22-rdf-syntax-ns#">
 <metadata id="metadata4843">
  <rdf:RDF>
   <cc:Work rdf:about="">
    <dc:format>image/svg+xml</dc:format>
    <dc:type rdf:resource="http://purl.org/dc/dcmitype/StillImage"/>
   </cc:Work>
  </rdf:RDF>
 </metadata>
 <g id="layer1">
  <rect id="rect5047" width="700" height="420" ry="2.73049" style="fill:#ffdead"/>
  <circle id="path5035" cx="350" cy="318.0636" r="277.4102" style="fill:none;stroke-width:9.99969;stroke:#ff0000"/>
  <circle id="path5033" cx="350" cy="318.0636" r="267.9107" style="fill:none;stroke-width:10;stroke:#ffcc00"/>
  <circle id="path5031" cx="350" cy="318.0636" r="258.4191" style="fill:none;stroke-width:10;stroke:#0044aa"/>
  <rect id="rect5040" x="43.44828" y="340.9019" width="621.6446" height="80.73625" ry="2.425969" style="fill:#ffdead"/>
  <path id="path4991" d="m324.2397 361.4419 13.06078 13.52859 18.5829-17.05786 17.117 27.96812-74.49995 0.03795 25.73927-24.4768z" style="fill:#04a"/>
  <path id="path4989" d="m219.0005 342.2118c0-11.61494-0.04339-11.83854-2.95936-15.25-2.71571-3.17718-2.9627-4.1003-3-11.21223l-0.04064-7.75-6 0.09216 0.05833 4.90784-5.05833 0.04363 0.06323 3.95637-8.06323-0.09216-0.11887-4.90784-3.80588 0.03652-0.08995-7.03652 9.0147 0.08505-0.13529-6.08505h-6.60638l-0.70598-6.2401c-0.3883-3.43206-1.18589-6.81835-1.77244-7.52509-0.58655-0.70675-1.16892-3.10098-1.29415-5.3205-0.15819-2.80369-1.04406-4.88761-2.90214-6.82703-2.28413-2.38412-2.80938-4.0958-3.59907-11.72877-0.50856-4.91549-1.61312-10.88862-2.4546-13.27361-2.4354-6.90266-1.94544-10.586 2.47282-18.58992 2.20153-3.98819 4.45275-9.62395 5.00272-12.52392 1.16815-6.15965 2.31018-7.78582 6.78-9.65421 3.34136-1.3967 5.21451-4.54667 5.21451-8.76894 0-3.44412 6.00814-11.80234 9.86983-13.73039 1.85341-0.92537 4.16665-2.99274 5.14053-4.59416s4.57124-4.7818 7.99412-7.06752l6.22343-4.15584h174.772v185h-21v-8l-14.88992-0.07815-0.14287-4.92185h-18.96721v7h-92.99995v6h-36v-11.78777z" style="fill:#dc7729"/>
  <rect id="rect5986" x="339.3316" y="168.9619" width="63.65553" height="145.0415" style="fill:#604333"/>
  <path id="path5001" d="m390.3444 242.3785a68.93406 68.93406 0 1 1-137.8681 0 68.93406 68.93406 0 1 1 137.8681 0z" style="fill:white"/>
  <path id="path4985" d="m314.6852 303.1433c-1.71603-0.67657-1.70237-0.81783 0.25-2.5847 1.13588-1.02796 2.06524-2.24927 2.06524-2.71403 0-0.46475-5.55785-0.84501-12.35078-0.84501-12.6044 0-18.06036-1.02308-19.03766-3.56988-0.41982-1.09402 0.44263-1.44929 3.66982-1.51169l4.21862-0.08158-3.5-1.50124c-1.925-0.82569-4.98213-2.92128-6.79362-4.65687-2.54982-2.44299-3.48192-2.85095-4.12743-1.80648-0.4586 0.74202-0.62805 2.31182-0.37656 3.48844 0.40897 1.91339 0.18483 1.84301-2.12257-0.66646-2.97041-3.23057-3.32719-7.21093-0.88794-9.90627 1.61373-1.78315 1.41136-2.13644-4.38088-7.64816-4.19757-3.99427-6.29775-6.83796-6.80139-9.20923-0.40074-1.88682-1.80434-4.86306-3.11912-6.61386-3.90828-5.20443-2.5538-6.00791 2.68988-1.59564l3.23383 2.72109-2.10753-3.97109c-1.15914-2.18409-2.35902-4.80631-2.66641-5.82715-0.42443-1.40952-1.15812-1.70567-3.04958-1.23095-2.23321 0.5605-2.49068 0.31976-2.49068-2.32883 0-4.98502 1.75222-8.38221 4.01782-7.78974 1.82896 0.47828 1.98294 0.00384 1.99195-6.13803 0.00719-4.90277 0.63874-8.0072 2.39722-11.78384 2.70396-5.8072 5.29763-8.31609 4.23974-4.10116-0.35472 1.41333-0.37647 3.26932-0.04834 4.12442 0.53894 1.40447 0.88583 1.40516 3.58936 0.00711 2.87413-1.48627 7.58548-1.11821 5.13157 0.40088-0.61855 0.38292-2.30391 3.17121-3.74523 6.19621-1.44133 3.025-3.2785 6.625-4.0826 8-1.79932 3.07679-1.93493 6.31111-0.24149 5.75949 0.6875-0.22395 1.90011-1.72395 2.6947-3.33333l1.4447-2.92616 0.96804 3.31306c0.72638 2.48595 0.55295 4.62991-0.69469 8.58789-1.96678 6.23932-2.0617 9.12902-0.50322 15.31833 1.15452 4.58501 1.1671 4.59557 2.91029 2.44282 1.66373-2.05461 3.61823-3.0844 2.53861-1.33755-0.56569 0.91531 1.79444 11.91166 2.76487 12.88209 0.33794 0.33794 1.52433-0.20901 2.63642-1.21544 1.96322-1.77669 2.14824-1.76682 6.36567 0.33946 2.38902 1.19314 4.84276 2.16934 5.45276 2.16934 2.39353 0-0.16729 2.90439-2.81528 3.19299l-2.81691 0.30701 1.65202 3.39926c0.90861 1.8696 2.7454 4.11569 4.08176 4.99132 2.35856 1.54541 2.41174 1.52325 1.81555-0.75659-0.66521-2.54376 0.66777-7.13399 2.07167-7.13399 0.47656 0 1.38381 1.72674 2.01612 3.8372 1.47875 4.93564 3.11701 6.34241 12.21376 10.48794l7.48353 3.41035 8.20006-3.78642c8.24562-3.80748 12.25642-7.79642 12.26582-12.19907 0.0021-0.9625 0.4379-1.75 0.9686-1.75 1.6809 0 3.2302 4.08688 2.5606 6.75468-0.6227 2.48095-0.566 2.51747 1.6649 1.07265 1.2703-0.82266 3.0993-3.03285 4.0644-4.91154l1.7547-3.41579-2.9196-0.30701c-3.0194-0.3175-5.2767-3.19299-2.5066-3.19299 0.8363 0 3.2615-1.002 5.3894-2.22666 3.8333-2.20617 3.8886-2.20884 6.0092-0.28977 1.8237 1.65044 2.2743 1.72094 3.0468 0.47667 1.3083-2.10726 3.0875-10.96323 2.4197-12.04381-0.3115-0.50404-0.1057-0.91643 0.4574-0.91643 0.5632 0 1.5262 0.93854 2.1401 2.08565 1.4236 2.65997 1.5759 2.46396 3.3351-4.28977 1.3539-5.19797 1.3161-6.09556-0.503-11.94017-1.4536-4.67039-1.7452-7.23782-1.1173-9.8377l0.8496-3.51801 1.4449 2.92616c0.7946 1.60938 2.0073 3.10938 2.6948 3.33333 1.859 0.60552 1.5133-2.77837-0.6905-6.75949-1.0656-1.925-2.8933-5.51597-4.0615-7.97993-1.1682-2.46397-2.6455-4.80226-3.283-5.19621-2.4926-1.54056 2.2992-1.96329 5.2978-0.46737 2.6959 1.34489 3.1609 1.35452 3.6517 0.07564 0.3093-0.80602 0.3487-2.58298 0.0876-3.94881-0.8009-4.18985 0.9683-2.76752 3.6753 2.95475 2.0144 4.25812 2.5726 6.98501 2.5726 12.56739 0 6.5996 0.1441 7.08359 1.9391 6.51387 2.4434-0.77548 4.0609 1.98654 4.0609 6.93398 0 3.32086-0.1833 3.53877-2.4906 2.95967-1.8915-0.47472-2.6252-0.17857-3.0496 1.23095-0.3074 1.02084-1.5073 3.64306-2.6664 5.82715l-2.1076 3.97109 3.2339-2.72109c5.3006-4.4602 6.6148-3.59945 2.5803 1.69003-1.375 1.80272-2.5 4.05228-2.5 4.99902 0 3.02646-2.0086 5.95713-7.825 11.41672-3.7016 3.47456-5.2178 5.51045-4.3603 5.85487 0.723 0.29042 1.734 1.63113 2.2466 2.97936 1.0142 2.66754-0.5879 6.87124-3.5582 9.33638-1.4501 1.20349-1.5582 1.07032-0.9849-1.21373 0.9963-3.96943-1.2728-4.41298-4.8546-0.94895-1.7399 1.68279-4.7386 3.74076-6.6636 4.57328l-3.5 1.51366 4.25 0.03914c2.3375 0.02153 4.25 0.47331 4.25 1.00396 0 2.43203-5.1164 3.55744-18.345 4.03518l-13.84508 0.5 4.22146 5.35528-2.10074 0.66675c-1.43106 0.4542-2.81144-9.1e-4 -4.33012-1.42764-2.77389-2.60593-3.813-2.62201-6.10047-0.09439-1.96346 2.1696-2.11937 2.20663-4.81524 1.14374z" style="fill:#447821"/>
  <path id="path4983" d="m316.0005 280.9996c0-3.40743-0.63006-3.64784-3.77925-1.44207-2.77723 1.94525-4.22075 1.12634-4.22075-2.39444 0-1.49516-0.6785-3.68717-1.50778-4.87113-1.38384-1.97571-1.34347-2.2048 0.49106-2.78705 1.09935-0.34892 2.46206-0.34811 3.02824 0.00181s2.35459-0.47884 3.97425-1.84169c5.89324-4.95884 18.03754-4.27521 20.16428 1.13508 0.58363 1.48472 1.7079 4.2177 2.4984 6.0733 1.5299 3.59126 1.092 5.26661-0.8651 3.30952-1.9949-1.99488-2.78335-1.33863-2.78335 2.31667 0 4.62831-3.29269 4.96775-4.85016 0.5-0.84569-2.42597-1.61458-3-4.01837-3-2.48975 0-3.07958 0.48726-3.63147 3-0.45316 2.06324-1.25861 3-2.57946 3-1.46727 0-1.92054-0.70804-1.92054-3z" style="fill:black"/>
  <path id="path4981" d="m295.4723 261.9518c-0.72319-1.16549 4.83011-1.66604 5.78878-4.37564l18.70898-52.87955 18.62949 52.13973c0.25609 0.71673 4.19596 0.66321 8.70416 0.66321 6.5509 0 8.1967 0.29564 8.1967 1.47232 0 1.97071-6.831 3.08606-16.9864 2.77349-6.69404-0.20603-8.04094-0.529-8.32331-1.99581-0.20558-1.06789 1.84802-2.53583 2.8081-2.53583l-12.91513-9.28229-13.0624 9.20154c-0.97476 0.68665 5.43809 1.67764 12.70992 1.12768 6.3418-0.47963 7.26927-0.33682 7.26927 1.11931 0 0.918-1.17701 2.11659-2.61558 2.66353-2.6415 1.0043-28.28297 0.92299-28.91258-0.09169z" style="fill:black"/>
  <path id="path4979" d="m317.0005 245.5196-5.99821-4.65496-3.21385 11.37689c3.05885-2.24211 6.44531-4.11613 9.21206-6.72193z" style="fill:white"/>
  <path id="path4977" d="m328.0002 241.148-5.1618 4.28971 9.01392 6.01323-3.85212-10.30294z" style="fill:white"/>
  <path id="path4975" d="m325.225 239.9825-10.57315 0.01714 5.42 4.70833 5.15315-4.72547z" style="fill:white"/>
  <path id="path4973" d="m320.0482 230.8746-5.37243 6.08898 10.69884 0.03605-5.32641-6.12503z" style="fill:white"/>
  <path id="path4971" d="m323.9623 226.7024-2.0167 2.17651 4.1849 4.75575-2.1682-6.93226z" style="fill:white"/>
  <path id="path4969" d="m317.4615 229.0293-2.04611-2.62321-2.52219 7.27078 4.5683-4.64757z" style="fill:white"/>
  <path id="path4967" d="m322.5038 223.2712-2.50003-8.71168-3.47876 8.81574 3.53806 3.96823 2.44073-4.07229z" style="fill:white"/>
  <path id="path4965" d="m314.6943 256.3601c-1.53269-1.5327 0.87489-2.36052 6.86517-2.36052 5.05865 0 6.44098 0.32192 6.44098 1.5 0 1.17544-1.37037 1.5-6.33333 1.5-3.48334 0-6.6211-0.28777-6.97282-0.63948z" style="fill:black"/>
  <path id="path4963" d="m279.0005 251.9039c0-3.96096 2.86716-8.83284 5.60222-9.5193 1.80313-0.45256 2.2132-1.5054 2.72625-6.99961 0.68665-7.35313 1.36908-9.08783 2.95229-7.50462 0.58026 0.58026 0.95049 3.93841 0.82273 7.46256-0.22278 6.14503-0.12596 6.43422 2.36313 7.05895 3.0746 0.77167 6.3869 6.01768 6.52964 9.84773l0.08575 2.30095-5.19427-0.01151c-0.17489-2.28528-1.24787-5.35639-4.22929-5.39644-2.44111-0.03408-4.16031 3.08125-4.1075 5.46384l-7.4801 0.05638-0.07085-2.75893z" style="fill:black"/>
  <path id="path4961" d="m345.7504 253.3736c-0.77044 0.03137-1.7654-0.94761-1.63774-1.58981l-0.21417-5.33512-2.12261-0.48538-0.1223 5.64332c-0.02019 0.93163-3.23983-0.37705-3.23488-0.60699l0.143-6.64332-1.7642-0.35668 5.95848-8.04142 11.44824-0.07084-0.09156-2.4594 2.52923 0.00519 0.19146 2.52844 2.15847-0.09971 5.028 8.10668-0.024 7.14219s5.02821 1.37009 5.50458 1.83565c0.47637 0.46557-3.5991 0.02661-3.5991 0.02661-1.9795 0.01464-6.9295 0.22789-11 0.47391-4.0705 0.24601-8.1884 0.21302-9.1509-0.07332z" style="fill:black"/>
  <path id="path4957" d="m361.4495 243.9135-3.29893-6.03107-13.37464-0.0034 2.45479 5.9188 14.21878 0.11567z" style="fill:white"/>
  <path id="path4955" d="m280.3479 223.5922c1.3988-2.13483 1.40613-2.47317 0.06478-2.98789-1.2738-0.4888-1.18504-0.9321 0.56212-2.80745 1.14112-1.22485 1.86129-2.78331 1.60038-3.46324-0.26092-0.67994 0.37965-2.27074 1.42347-3.53511l1.89788-2.29887 1.79422 2.5c0.98682 1.375 1.66777 2.88985 1.51321 3.36634s0.45891 1.9956 1.36325 3.3758c1.35243 2.06407 1.40517 2.65721 0.29714 3.34201-1.07286 0.66307-1.09434 1.08535-0.10548 2.07421 2.2985 2.2985 1.27145 2.84164-5.37337 2.84164h-6.61501l1.57741-2.40744z" style="fill:black"/>
  <path id="path4953" d="m295.0005 210.9996h10v-6.9594l5-0.0406-0.04103 22-2.95897-0.00644-0.03982-5.99356-4.96018 0.0366-0.03338 5.9634h-6.96662v-15z" style="fill:black"/>
  <rect id="rect5972" x="297.011" y="213.0093" width="5.982709" height="4.97628" style="fill:white"/>
  <path id="path4949" d="m329.0005 225.992-0.00644-14.99237 1.95053 0.01931 0.04303-6.01931 4.01288 0.0366-0.03546 5.9634h11.03541v7.5 7.5l-9.88818 0.01932-0.09889-6.01932-3.95697 0.0366-0.04626 5.9634-3.00965-0.00763z" style="fill:black"/>
  <rect id="rect5984" x="335.9825" y="214.0157" width="8.051502" height="3.969838" style="fill:white"/>
  <path id="path4945" d="m350.0004 225.1996c0-0.44 0.521-1.32093 1.1577-1.95762 0.8749-0.87497 0.8758-1.49714 0.0035-2.54821-0.8997-1.08407-0.7109-1.79166 0.8565-3.21016 1.1355-1.02759 1.7807-2.54403 1.4823-3.48401-0.2905-0.91544 0.3003-2.41427 1.313-3.33073 1.7309-1.56645 1.9819-1.51659 4.1884 0.83222 1.291 1.37418 1.8254 2.49851 1.1877 2.49851-0.7149 0-0.4106 1.23169 0.7931 3.21108 1.4578 2.39713 1.6463 3.40051 0.7437 3.95836-0.9414 0.5818-0.9342 1.02223 0.0325 1.98892 2.2926 2.29261 1.2767 2.84164-5.2584 2.84164-3.575 0-6.5-0.36-6.5-0.8z" style="fill:black"/>
  <path id="path4943" d="m274.4766 211.2496c0.37958-0.9625 1.04937-3.97516 1.48843-6.69479 1.03553-6.41426 7.0354-11.90783 7.0354-6.44171 0 1.77951 0.47408 2.04392 3 1.67319 1.97401-0.28972 3-0.01097 3 0.81507 0 1.44227-2.71035 4.39824-4.03279 4.39824-0.48946 0-2.67203 1.8-4.85015 4-4.16997 4.21185-6.83358 5.2743-5.64089 2.25z" style="fill:#c87137"/>
  <path id="path4941" d="m364.804 211.9095c-0.924-0.51704-2.9948-2.17079-4.6019-3.67499-1.6071-1.50421-4.1099-3.54343-5.5618-4.5316-3.9817-2.70997-3.4702-4.71233 1.0177-3.98404 3.3733 0.54741 3.6137 0.42597 3.0936-1.56287-0.7278-2.78297 0.4688-2.73147 3.8362 0.1651 2.0993 1.8057 2.8769 3.6327 3.4998 8.2227 0.4404 3.24566 0.7097 5.99223 0.5985 6.10349-0.1113 0.11126-0.9582-0.22074-1.8821-0.73779z" style="fill:#c87137"/>
  <path id="path4937" d="m322.5005 191.9996c0-1.56144-0.646-2.59702-1.75302-2.81021-1.97949-0.38122-3.26679 2.01323-2.35699 4.38412 0.95373 2.4854 4.11001 1.27672 4.11001-1.57391z" style="fill:white"/>
  <path id="path4929" d="m444.0004 338.9996h-33v-13h44v-84h9v-12h52v84h-23v31h-49v-6z" style="fill:#dc7729"/>
  <path id="path4933" d="m307.2642 191.282c1.52006-0.22986 3.77006-0.22371 5 0.01365s-0.01375 0.42542-2.76375 0.41792c-2.75-0.00751-3.75631-0.20172-2.23625-0.43157z" style="fill:black"/>
  <path id="path4925" d="m104.0005 322.2298c0-0.42336 4.18161-4.93397 9.29246-10.02357l9.29246-9.25383 3.98997 3.41527 3.98997 3.41526 6.96757-8.36358 6.96757-8.36359 14.47064 14.36458 3.31229-3.2104c1.82176-1.76571 3.58473-3.21039 3.91771-3.21039 0.65458 0 14.79936 20.47845 14.79936 21.42613 0 0.31563-17.325 0.57387-38.5 0.57387s-38.5-0.34639-38.5-0.76975z" style="fill:#fc0"/>
  <path id="path4923" d="m411.0004 168.9996h29v22h26v10h-10v32h-8v88h-37v-152z" style="fill:#dc7729"/>
  <path id="path4921" d="m247.7662 158.9703c1.79617-1.63388 4.19964-2.97069 5.34103-2.97069s3.91529-1.575 6.16422-3.5c2.73215-2.33862 5.09945-3.5 7.13421-3.5 1.67488 0 6.07445-1.18847 9.77682-2.64105 5.89476-2.31273 7.33704-2.52133 11.60196-1.67805 5.41106 1.0699 12.98325-0.10928 23.78521-3.70394 6.01762-2.00254 6.59147-2.02469 13.81246-0.53315 4.1437 0.8559 8.43747 1.55619 9.54173 1.55619 1.10423 0 4.87313 1.575 8.37523 3.5 9.9117 5.44816 15.522 4.74731 28.2367-3.52743 4.3228-2.81325 7.0185-3.89199 9.5-3.80159 1.9128 0.06968 5.7042-0.98605 8.4646-2.35705 4.412-2.19121 5.2941-2.32803 7.5-1.16334 1.375 0.72596 7.0647 0.09715 7.06176 1.33467l-0.06176 26.01474-159.5-0.05863 3.26578-2.97068z" style="fill:#dc7729"/>
  <path id="path4809" d="m318.5505 118.1366 36.79735-25.49037 10.1526 11.325 12.3619-7.932268 20.3546 22.96066-79.66645-0.86302z" style="fill:black"/>
  <path id="path4914" d="m597 325.7125-25.39908-31.66353-15.15679 13.95103-11.65823-5.38092-26.7859 23.02608 79 0.06734z" style="fill:#ffffff"/>
  <path id="path5060" d="m326.2754 187.3107 9.78401-4.93454" style="fill:none;stroke-linecap:round;stroke-width:2;stroke:black"/>
  <path id="path5054" transform="translate(.595548 .680627)" d="m324.744 191.6497a4.849465 4.849465 0 1 1-9.69893 0 4.849465 4.849465 0 1 1 9.69893 0z" style="fill:white;stroke-width:2;stroke:black"/>
  <path id="path5056" d="m312.2383 192.1811-8.67965-0.0153" style="fill:none;stroke-linecap:round;stroke-linejoin:round;stroke-width:2;stroke:black"/>
  <path id="path5058" d="m314.1943 187.3958-9.61385-4.76438" style="fill:none;stroke-linecap:round;stroke-width:2;stroke:black"/>
  <path id="path5062" d="m328.5726 192.1811h9.61386" style="fill:none;stroke-linecap:round;stroke-width:2;stroke:black"/>
  <path id="path5064" d="m326.5307 197.0947 9.44369 4.93455" style="fill:none;stroke-linecap:round;stroke-width:2;stroke:black"/>
  <path id="path5066" d="m314.1092 196.9246-8.67799 5.35994" style="fill:none;stroke-linecap:round;stroke-width:2;stroke:black"/>
  <rect id="rect5962" x="347.225" y="245.9946" width="14.70626" height="5.388554" style="fill:white"/>
  <rect id="rect5991" x="410.992" y="168.96" width="28.98696" height="144.8632" style="fill:#604333"/>
 </g>
</svg>
