<?xml version="1.0" standalone="no"?>
<!DOCTYPE svg PUBLIC "-//W3C//DTD SVG 1.1//EN" "http://www.w3.org/Graphics/SVG/1.1/DTD/svg11.dtd" >
<svg xmlns="http://www.w3.org/2000/svg" xmlns:xlink="http://www.w3.org/1999/xlink" version="1.1">
<metadata>
Created by FontForge 20170731 at Sun Sep  3 10:21:28 2023
 By Aleksey,,,
Copyright (c) 2021, Viktor Kovacs
</metadata>
<defs>
<font id="Kende" horiz-adv-x="465" >
  <font-face 
    font-family="Kende"
    font-weight="400"
    font-stretch="normal"
    units-per-em="1000"
    panose-1="2 0 5 3 0 0 0 0 0 0"
    ascent="800"
    descent="-200"
    bbox="-35 -80 887 801"
    underline-thickness="50"
    underline-position="-175"
    unicode-range="U+0020-10CFF"
  />
<missing-glyph horiz-adv-x="365" 
d="M33 0v667h266v-667h-266zM66 33h200v600h-200v-600z" />
    <glyph glyph-name="Q" unicode="&#x10c93;&#x200d;&#x10caa;" horiz-adv-x="914" 
d="M148 610v-512l153 184l149 -178v500l-149 -178zM551 344l101 -232l108 247l-118 249zM541 1h-88l-151 175l-151 -176h-88h3h-6v714h88v-2h3l151 -180l148 176v6h88v-2h3l-3 -4l-1 -126l63 139h94l160 -362l-157 -355h-94l-61 141z" />
    <glyph glyph-name="qu" unicode="&#x10cd3;&#x200d;&#x10cee;" horiz-adv-x="598" 
d="M60 352l232 223l247 -217l-1 -358h-90v230l-156 -123l-142 124v-231h-90v352zM462 330l-172 146l-154 -149l154 -131z" />
    <glyph glyph-name="QU" unicode="&#x10c93;&#x200d;&#x10cae;" horiz-adv-x="602" 
d="M538 426l-2 -426l-86 -1v267l-149 -178l-153 184v-273h-88v420l241 295zM448 411l-146 174l-153 -178l-1 -13h3l151 -180l148 176z" />
    <glyph glyph-name="q" unicode="&#x10cd3;&#x200d;&#x10cea;" horiz-adv-x="947" 
d="M449 86v404l-156 -143l-142 144v-394l142 134zM533 285q70 -111 139 -223l133 232l-133 221zM544 444l79 131h94l170 -281l-167 -294h-94l-82 135q-2 -80 -2 -135l-78 2l-173 151l-154 -154l-72 1l-5 575h77l154 -149l173 148l78 1z" />
    <glyph glyph-name="Qsemi" unicode="&#x10c93;&#x200d;&#x10cea;" horiz-adv-x="914" 
d="M537 574l63 147h94l160 -362l-157 -355h-94q-9 20 -61 138v-142l-78 2l-173 151l-154 -154l-72 1l-5 575h77l154 -149l173 148h73zM449 86v404l-156 -143l-142 144v-394l142 134zM551 344l101 -232l108 247l-118 249z" />
    <glyph glyph-name="x" unicode="&#x10cd3;&#x200d;&#x10ce5;" horiz-adv-x="547" 
d="M152 133v-133h-92v575h92l1 -123l70 123h94l170 -281l-167 -294h-94q-41 72 -41 72.5t-33 60.5zM405 294l-133 221l-130 -224l130 -229z" />
    <glyph glyph-name="X" unicode="&#x10c93;&#x200d;&#x10ca5;" horiz-adv-x="534" 
d="M148 173v-173h-88v714h88q0 -158 -1 -161l73 163h94l160 -362l-157 -352h-94zM380 354l-118 249l-106 -247l116 -249z" />
    <glyph glyph-name="W" unicode="&#x10cae;&#x200d;&#x10cae;" horiz-adv-x="602" 
d="M450 506v98l-149 -178l-153 184v-99l154 -183zM450 397l-149 -175l-153 181v-407h-88v718h88v-2h3l151 -180l148 176v6h88v-2v-4l-2 -711l-86 -1v401z" />
    <glyph glyph-name="w" unicode="&#x10cee;&#x200d;&#x10cee;" horiz-adv-x="598" 
d="M149 396l141 -140l158 146v88l-156 -143l-142 144zM448 320l-156 -143l-142 141v-318h-90v575h76l154 -149l172 147l76 2v-575h-90v320z" />
    <glyph glyph-name="DZ" unicode="&#x10c87;&#x200d;&#x10caf;" horiz-adv-x="751" 
d="M150 128l292 214v84l-292 -212v-86zM442 510v89l-292 -214v-89zM532 361v-367h-90v265l-292 -214v-46h-90v714h90v-245l292 215v25h90v-262l159 118v-81z" />
    <glyph glyph-name="dz" unicode="&#x10cc7;&#x200d;&#x10cef;" horiz-adv-x="750" 
d="M152 280l-2 -42l293 168v81l-290 -167zM443 343l-293 -168v-81l293 167v82zM533 225v-225h-90v195l-293 -172v-23h-90v575h90v-189l293 168v21h90v-277l157 98v-73q-78 -49 -157 -98z" />
    <glyph glyph-name="DZS" unicode="&#x10c87;&#x200d;&#x10cb0;" horiz-adv-x="580" 
d="M335 299v-299h-90v244l-109 -70v81l109 73v121l-195 265h81l114 -157v157h90v-162l115 162h78v-2l-193 -265v-60l120 77v-81z" />
    <glyph glyph-name="dzs" unicode="&#x10cc7;&#x200d;&#x10cf0;" horiz-adv-x="580" 
d="M245 300v58l-185 216h67l118 -142v143h90v-143l118 142h67l-185 -219v-23l117 74v-63q-118 -65 -117 -68v-275h-90v235l-104 -60v63z" />
    <glyph glyph-name="Y" unicode="&#x10c92;&#x200d;&#x10c90;" horiz-adv-x="526" 
d="M331 517l135 88v-86l-136 -94l-1 -425h-90v371l-120 -84v96l120 84v137l-179 -157v91l192 175l79 1v-197z" />
    <glyph glyph-name="y" unicode="&#x10cd2;&#x200d;&#x10cd0;" horiz-adv-x="525" 
d="M330 372l-1 -372h-90v336l-119 -73v61l119 81v102l-179 -138v66l192 140h79v-140l134 84v-60z" />
    <glyph glyph-name=".notdef" horiz-adv-x="365" 
d="M33 0v667h266v-667h-266zM66 33h200v600h-200v-600z" />
    <glyph glyph-name=".null" horiz-adv-x="0" 
 />
    <glyph glyph-name="nonmarkingreturn" horiz-adv-x="333" 
 />
    <glyph glyph-name="space" unicode=" " horiz-adv-x="500" 
 />
    <glyph glyph-name="exclam" unicode="!" horiz-adv-x="279" 
d="M93 688h93v-496l-93 1v495zM186 0h-93v89l93 1v-90z" />
    <glyph glyph-name="quotedbl" unicode="&#x22;" horiz-adv-x="456" 
d="M283 472l-10 216h90l-11 -216h-69zM103 472l-10 216h89l-10 -216h-69z" />
    <glyph glyph-name="hyphen" unicode="-" horiz-adv-x="430" 
d="M93 305h244v-78h-244v78z" />
    <glyph glyph-name="period" unicode="." horiz-adv-x="279" 
 />
    <glyph glyph-name="colon" unicode=":" horiz-adv-x="278" 
d="M185 396h-92v89l92 1v-90zM185 0h-92v89l92 1v-90z" />
    <glyph glyph-name="uni200C" unicode="&#x200c;" horiz-adv-x="445" 
d="M259 800l93 1v-91h-46l14 -41l31 -38h-45l-32 38l-15 41v90zM93 799l93 1v-90h-47l15 -41l31 -39h-46l-31 39l-15 41v89z" />
    <glyph glyph-name="uni200D" unicode="&#x200d;" horiz-adv-x="0" 
 />
    <glyph glyph-name="uni200E" unicode="&#x200e;" 
d="M279 688h93v-496l-93 1v495zM372 0h-93v89l93 1v-90zM93 688h93v-496l-93 1v495zM186 0h-93v89l93 1v-90z" />
    <glyph glyph-name="uni200F" unicode="&#x200f;" horiz-adv-x="279" 
d="M93 89l93 1v-90h-47l15 -41l31 -39h-46l-31 39l-15 41v89zM186 396h-93v89l93 1v-90z" />
    <glyph glyph-name="uni201F" unicode="&#x201f;" horiz-adv-x="664" 
d="M395 0h-95v89l95 1v-90zM155 646q63 52 172 52q104 0 167 -52q64 -52 77 -148l-90 -6q-6 60 -47 94q-40 34 -108 34t-106 -32q-39 -32 -39 -88q0 -29 9 -50t24 -39q16 -18 34 -31q20 -15 38 -27q18 -13 39 -30q19 -15 34 -35q16 -20 25 -45q10 -26 10 -59h-94
q-1 42 -13 61q-20 33 -48 54l-39 29q-45 33 -66 57q-20 24 -31 53q-10 28 -10 66q0 91 62 142z" />
    <glyph glyph-name="ellipsis" unicode="&#x2026;" horiz-adv-x="279" 
d="M93 89l93 1v-90h-47l15 -41l31 -39h-46l-31 39l-15 41v89z" />
    <glyph glyph-name="exclamdbl" unicode="&#x203c;" horiz-adv-x="445" 
d="M259 90l93 1v-91h-46l14 -41l31 -38h-45l-32 38l-15 41v90zM93 89l93 1v-90h-47l15 -41l31 -39h-46l-31 39l-15 41v89z" />
    <glyph glyph-name="uni204F" unicode="&#x204f;" horiz-adv-x="279" 
d="M93 688h93v-496l-93 1v495zM186 0h-93v89l93 1v-90z" />
    <glyph glyph-name="uni2E2E" unicode="&#x2e2e;" horiz-adv-x="456" 
d="M283 472l-10 216h90l-11 -216h-69zM103 472l-10 216h89l-10 -216h-69z" />
    <glyph glyph-name="uni2E41" unicode="&#x2e41;" horiz-adv-x="430" 
d="M93 305h244v-78h-244v78z" />
    <glyph glyph-name="uni2E42" unicode="&#x2e42;" horiz-adv-x="279" 
d="M186 0h-93v89l93 1v-90z" />
    <glyph glyph-name="u10C80" unicode="&#x10c80;" horiz-adv-x="427" 
d="M60 501l222 212h83l2 -714h-88v388l-219 -2v116zM279 625l-158 -167l158 4v163z" />
    <glyph glyph-name="u10C81" unicode="&#x10c81;" horiz-adv-x="439" 
d="M80 541l202 172h83l2 -714h-88v288l-199 168v86zM279 625l-148 -127l148 -126v253z" />
    <glyph glyph-name="u10C82" unicode="&#x10c82;" horiz-adv-x="492" 
d="M251 281l-144 -280h-100l195 377l-167 323h100l117 -226l116 225h99l-166 -322l195 -377h-100z" />
    <glyph glyph-name="u10C83" unicode="&#x10c83;" horiz-adv-x="917" 
d="M420 1q-28 22 -53 46q-23 21 -45 44l-148 -90l-98 101l47 70l66 -69l79 53q-27 34 -45 76q-23 55 -23 126q0 70 23 125q18 44 45 78l-86 52l-65 -114l-57 62q1 0 106 153l156 -90q21 23 50 50q21 19 48 41h75q28 -22 54 -46q21 -20 43 -43l154 88l111 -129l-55 -67
l-67 100l-89 -56q28 -35 46 -79q23 -55 23 -127q0 -69 -21 -122q-19 -46 -48 -81l82 -50l68 94l53 -61l-107 -135l-150 88q-21 -22 -43 -42q-27 -25 -54 -46h-75zM459 59q65 60 111 136q55 92 55 162q0 71 -56 166q-48 82 -110 134h-3q-62 -55 -110 -134q-56 -95 -56 -165
q0 -71 57 -166q47 -79 109 -133h3z" />
    <glyph glyph-name="u10C84" unicode="&#x10c84;" horiz-adv-x="592" 
d="M159 521l-99 -10l190 203h92l190 -203l-98 10l-91 96l-3 -617h-93l3 616z" />
    <glyph glyph-name="u10C85" unicode="&#x10c85;" horiz-adv-x="590" 
d="M263 0l-203 205l99 -10l91 -95v516l-91 -95l-99 -10l203 203h64l203 -203l-98 10l-92 96v-518l92 96l98 10l-203 -205h-64z" />
    <glyph glyph-name="u10C86" unicode="&#x10c86;" horiz-adv-x="593" 
d="M439 372v197l-292 -214v-197zM439 653v55h90v-714h-90v295l-292 -214v-76h-90v714h90v-275z" />
    <glyph glyph-name="u10C87" unicode="&#x10c87;" horiz-adv-x="433" 
d="M164 386v328h91l-1 -269l121 79v-81l-121 -79l-1 -364h-89v305l-108 -71v81z" />
    <glyph glyph-name="u10C88" unicode="&#x10c88;" horiz-adv-x="470" 
d="M315 359l182 -359h-102l-141 290l-143 -290h-96l145 286l2 5l-127 -56v74l164 72l-172 333h100l130 -260l130 260h96l-127 -245l-12 -25l115 51v-73z" />
    <glyph glyph-name="u10C89" unicode="&#x10c89;" horiz-adv-x="446" 
d="M195 561q-45 47 -91 55q-18 3 -36 3h-10l-4 93q77 -4 102 -14q53 -20 104 -68l66 70l54 -50l-71 -76q65 -89 65 -216v-4q0 -57 -11 -98q-8 -30 -28 -69q-10 -20 -36 -54l81 -86l-54 -50l-73 77q-42 -43 -96 -61q-37 -13 -89 -15l-4 94q42 0 77 15q33 14 51 32l-96 101
l54 50l87 -91q23 42 36 72q14 33 12 85q-2 75 -46 145l-89 -94l-54 50z" />
    <glyph glyph-name="u10C8A" unicode="&#x10c8a;" horiz-adv-x="476" 
d="M127 87q33 18 58 34q-63 52 -90 103q-28 54 -28 131q0 75 27 128t90 105q-26 18 -61 38q-26 15 -63 34l59 52q70 -41 119 -77q49 36 119 77l59 -52q-37 -19 -72 -40l-52 -31q63 -52 89 -104q28 -54 28 -131q0 -76 -27 -129t-91 -104q25 -16 68 -40q19 -10 53 -29l-51 -54
q-35 21 -57 34q-40 25 -66 43q-26 -19 -62 -41q-26 -16 -61 -36l-51 54q36 19 63 35zM300 249q18 42 18 107q0 62 -16 100q-17 41 -64 86q-46 -43 -63 -84q-17 -40 -17 -103q0 -62 16 -102q18 -43 64 -87q45 42 62 83z" />
    <glyph glyph-name="u10C8B" unicode="&#x10c8b;" horiz-adv-x="448" 
d="M246 -78l-182 128q30 19 54 35q28 18 49 34l53 45q42 41 60 84q18 41 18 92q0 50 -17 90q-18 42 -61 84l-53 46q-22 18 -53 38q-22 15 -54 34l172 142l49 -52l-86 -71q81 -56 134 -129q59 -83 59 -190q0 -100 -53 -170q-47 -63 -126 -127l76 -51z" />
    <glyph glyph-name="u10C8C" unicode="&#x10c8c;" horiz-adv-x="605" 
d="M261 0q-99 76 -147 155q-54 90 -54 202t54 202q48 79 147 155h83q98 -76 146 -155q55 -90 55 -202t-55 -202q-48 -79 -146 -155h-83zM396 542q-18 26 -43 55q-21 24 -49 53h-3q-29 -29 -52 -57q-22 -25 -40 -50l93 -125zM256 355l-86 116q-19 -52 -19 -114q0 -63 19 -115
zM454 357q0 61 -19 113l-86 -115l86 -112q19 52 19 114zM304 64q57 55 91 103l-93 124l-92 -124q34 -48 91 -103h3z" />
    <glyph glyph-name="u10C8D" unicode="&#x10c8d;" horiz-adv-x="574" 
d="M213 -1l130 401l-59 178l-189 -577h-93l235 714l95 1l235 -715h-93l-96 291l-94 -293h-71z" />
    <glyph glyph-name="u10C8E" unicode="&#x10c8e;" 
d="M274 330l131 103v-87l-132 -103l-2 -243h-90v177l-121 -85v87l121 88v130l-121 -85v77l121 88v237h90l1 -164l133 93v-87l-132 -94z" />
    <glyph glyph-name="u10C8F" unicode="&#x10c8f;" horiz-adv-x="550" 
d="M275 247l92 110l-92 113l-92 -113zM215 529l-148 185h108l100 -115l100 115h107l-148 -175l143 -181l-143 -175l156 -183h-118l-97 123l-108 -123h-107l155 183l-142 174z" />
    <glyph glyph-name="u10C90" unicode="&#x10c90;" 
d="M271 538v-538h-90v478l-121 -81v86l121 81v150h90v-90l136 91v-86z" />
    <glyph glyph-name="u10C91" unicode="&#x10c91;" 
d="M386 701l18 13v-1l3 2v-86l-134 -90l-2 -539h-90v478l-121 -81v86z" />
    <glyph glyph-name="u10C92" unicode="&#x10c92;" horiz-adv-x="391" 
d="M60 538l192 175l79 1l-2 -714h-90v604l-179 -157v91z" />
    <glyph glyph-name="u10C93" unicode="&#x10c93;" horiz-adv-x="547" 
d="M380 354l-118 249l-106 -247l116 -249zM223 2l-166 358l163 356h94l160 -362l-157 -352h-94z" />
    <glyph glyph-name="u10C94" unicode="&#x10c94;" horiz-adv-x="594" 
d="M350 0l-87 1l-6 574l-113 -162h-85l201 302l88 -1v-575l131 183l85 1z" />
    <glyph glyph-name="u10C95" unicode="&#x10c95;" horiz-adv-x="588" 
d="M7 1l2 4l-42 87l-2 99l87 -102l150 289l-123 238l-87 -102l2 99l42 86l-1 2h2l1 2l1 -2h96l117 -226l116 225h96l2 3l44 -90l2 -99l-88 103l-123 -239l151 -291l89 104l-2 -99l-44 -90l1 -1h-100l-145 280l-144 -280h-100z" />
    <glyph glyph-name="u10C96" unicode="&#x10c96;" horiz-adv-x="564" 
d="M349 358l-122 -359h-66l154 450l-42 129l-189 -577h-93l235 714h2v1h93l235 -715h-93l-45 150l-49 -150h-66l80 241z" />
    <glyph glyph-name="u10C97" unicode="&#x10c97;" horiz-adv-x="584" 
d="M245 0q-84 76 -127 148q-58 97 -58 209t58 208q44 73 127 149h74q92 -76 140 -147q65 -98 65 -211q0 -111 -64 -207q-48 -73 -141 -149h-74zM368 541q-30 50 -84 109h-2q-78 -85 -97.5 -126t-29 -81t-12.5 -86.5t22 -113.5zM284 64q90 100 118 151t31.5 115.5
t-22.5 146.5l-210 -310q15 -25 38 -53q18 -23 43 -50h2z" />
    <glyph glyph-name="u10C98" unicode="&#x10c98;" horiz-adv-x="455" 
d="M311 711l2 1h45v-1h40v-711h-88v4l-248 129l-4 -2l1 80l216 143l-213 111l-2 -2v83l250 164v1h1zM310 629l-183 -120l183 -95v215zM310 296l-183 -120l183 -95v215z" />
    <glyph glyph-name="u10C99" unicode="&#x10c99;" horiz-adv-x="410" 
d="M60 77h10q185 0 185 283q0 142 -47 211q-43 64 -126 64h-22v82q78 -3 143 -38q85 -45 119 -131q28 -70 28 -177q0 -190 -88 -288q-76 -85 -202 -82v76z" />
    <glyph glyph-name="u10C9A" unicode="&#x10c9a;" horiz-adv-x="500" 
d="M362 90q-75 -90 -211 -90h-91v714h107q84 0 146 -40q61 -40 93 -115q34 -80 34 -198q0 -178 -78 -271zM298 573q-43 64 -126 64h-22v-560h10q185 0 185 284q0 143 -47 212z" />
    <glyph glyph-name="u10C9B" unicode="&#x10c9b;" horiz-adv-x="469" 
d="M171 75q148 17 148 293q0 138 -37 204q-34 62 -100 62h-20l-102 -95l1 84q63 60 101 92q69 -1 125 -36q74 -45 101 -134q21 -66 21 -170q0 -194 -72 -291q-64 -86 -175 -85q-38 32 -101 90v80l101 -95z" />
    <glyph glyph-name="u10C9C" unicode="&#x10c9c;" horiz-adv-x="532" 
d="M472 359q1 -4 0 -4q0 -57 -11 -96q-8 -32 -26 -62q-69 -122 -172 -195l-70 -2l-133 198l120 156l53 -68l-79 -96q1 -12 29 -42q50 -71 75 -41q17 10 57.5 70t47.5 80q21 47 14 115q-3 90 -46 161q-64 81 -98 92q-17 6 -46 2q-5 0 3 90q60 0 82 -8q43 -14 126 -116
q74 -102 74 -234z" />
    <glyph glyph-name="u10C9D" unicode="&#x10c9d;" horiz-adv-x="380" 
d="M326 536l-160 -317l164 -159l-65 -62l-205 218l160 320l-132 125l57 52z" />
    <glyph glyph-name="u10C9E" unicode="&#x10c9e;" horiz-adv-x="484" 
d="M150 325v-325h-90v713h90v-302l188 297h74l-206 -336l215 -370h-74z" />
    <glyph glyph-name="u10C9F" unicode="&#x10c9f;" horiz-adv-x="576" 
d="M303 584l-2 3q-20 22 -53 33q-20 7 -61 7q-5 0 3 90q63 0 80 -7q64 -26 109 -72l95 75l42 -53l-95 -75q51 -104 51 -226v-4q0 -57 -11 -98q-6 -23 -24 -57q-10 -19 -29 -55l98 -78l-42 -53l-97 77l-14 -15l-90 -74l-70 -2l-133 198l120 156l53 -68l-79 -96q1 -12 23 -35
q57 -61 107 -32q10 6 17 14l-61 43l42 53l54 -38q20 47 26 61q20 45 15 117q-5 80 -36 155l-49 -34l-42 53z" />
    <glyph glyph-name="u10CA0" unicode="&#x10ca0;" horiz-adv-x="503" 
d="M353 442l-296 -208v80l296 212v96l-296 -208v81l310 219h76v-714h-90v262l-296 -208v80l296 211v97z" />
    <glyph glyph-name="u10CA1" unicode="&#x10ca1;" horiz-adv-x="823" 
d="M417 59q65 60 111 136q55 92 55 162q0 71 -56 166q-48 82 -110 134h-3q-62 -55 -110 -134q-56 -95 -56 -165q0 -71 57 -166q47 -79 109 -133h3zM179 0l-58 39l95 108q-36 60 -49 124l-46 -68h-92l130 163q2 59 16 101q14 43 39 82l-120 -70l-68 1l387 234l396 -236l-68 1
l-121 72q26 -40 40 -83q15 -48 16 -102l130 -163h-93l-45 68q-7 -33 -21 -66q-11 -28 -28 -58l94 -108l-63 -39l-88 90l-119 -90h-65l-110 90z" />
    <glyph glyph-name="u10CA2" unicode="&#x10ca2;" horiz-adv-x="593" 
d="M439 409l-292 -214v-196h-90v714h90v-435l292 215v215h90v-714h-90v415z" />
    <glyph glyph-name="u10CA3" unicode="&#x10ca3;" horiz-adv-x="413" 
d="M60 212v79l293 211v-79z" />
    <glyph glyph-name="u10CA4" unicode="&#x10ca4;" horiz-adv-x="574" 
d="M239 715v1h93l235 -715h-93l-190 577l-189 -577h-93l235 714h2z" />
    <glyph glyph-name="u10CA5" unicode="&#x10ca5;" horiz-adv-x="208" 
d="M60 0v714h88v-714h-88z" />
    <glyph glyph-name="u10CA6" unicode="&#x10ca6;" horiz-adv-x="394" 
d="M244 714h90v-714h-90v388l-194 324h76l118 -201v203z" />
    <glyph glyph-name="u10CA7" unicode="&#x10ca7;" horiz-adv-x="713" 
d="M60 497l130 217l124 -198l-1 201h90l1 -201l122 198l127 -219h-67l-60 105l-123 -173l4 -424h-90l-4 424l-122 168l-64 -98h-67z" />
    <glyph glyph-name="u10CA8" unicode="&#x10ca8;" horiz-adv-x="492" 
d="M178 0l110 215l-35 67l-144 -280h-100l195 377l-167 323h100l49 -95l48 94h76l-86 -168l30 -57l116 225h99l-166 -322l195 -377h-100l-72 139l-72 -141h-76z" />
    <glyph glyph-name="u10CA9" unicode="&#x10ca9;" horiz-adv-x="492" 
d="M330 634l-103 -55v81l76 40l69 1v-1h91l-166 -322l195 -377l-189 -1l-76 40v81l147 -66l-127 226l-144 -280h-100l195 377l-167 323h100l117 -226z" />
    <glyph glyph-name="u10CAA" unicode="&#x10caa;" horiz-adv-x="602" 
d="M148 610v-512l153 184l149 -178v500l-149 -178zM66 0h-6v714h88v-2h3l151 -180l148 176v6h88v-2h3l-3 -4v-708l3 -4h-88l-151 180l-151 -180h-88z" />
    <glyph glyph-name="u10CAB" unicode="&#x10cab;" horiz-adv-x="601" 
d="M543 9l4 -7h-4v-2h-88v9l-153 271l-151 -269v-11h-91v2h-1l1 2v704l-1 2h1v4h90v-9l152 -269l153 272v10h88v-709zM150 549l1 -383l107 191zM455 165v388l-109 -195z" />
    <glyph glyph-name="u10CAC" unicode="&#x10cac;" horiz-adv-x="688" 
d="M578 674l44 -60l-104 -114q47 -90 48 -173q0 -69 -31 -130l93 -126l-52 -69l-94 123q-36 -62 -89 -123h-105q2 4 4 4h-7q-51 59 -86 115l-91 -118l-43 65l95 124q-1 2 -3 7q-17 32 -20 41l-3 6q-11 27 -14 44l-2 9q-4 25 -4 42q0 25 9 60q7 28 17 49q3 7 19 40l-99 133
l48 53l90 -108q28 48 92 123h99q-2 -4 -3 -4h1q52 -59 87 -119zM436 214q36 62 36 124t-36 128q-32 58 -99 132q-65 -72 -96 -130q-34 -65 -34 -126q0 -63 35 -125q31 -53 98 -125q66 72 96 122z" />
    <glyph glyph-name="u10CAD" unicode="&#x10cad;" horiz-adv-x="462" 
d="M59 710h88v-368l260 147v-487h-88v367l-260 -148v489z" />
    <glyph glyph-name="u10CAE" unicode="&#x10cae;" horiz-adv-x="602" 
d="M450 604l-149 -178l-153 184v-614h-88v718h88v-2h3l151 -180l148 176v6h88v-2v-4l-2 -711l-86 -1v608z" />
    <glyph glyph-name="u10CAF" unicode="&#x10caf;" horiz-adv-x="593" 
d="M147 128l292 214v84l-292 -212v-86zM439 510v89l-292 -214v-89zM439 683v25h90v-714h-90v265l-292 -214v-46h-90v714h90v-245z" />
    <glyph glyph-name="u10CB0" unicode="&#x10cb0;" horiz-adv-x="580" 
d="M335 447v-447h-90v449l-195 265h81l114 -157v157h90v-162l115 162h78v-2z" />
    <glyph glyph-name="u10CB1" unicode="&#x10cb1;" horiz-adv-x="712" 
d="M525 708l127 -170h-67l-60 85l-122 -136l-4 -147l126 150l127 -171h-67l-60 81l-127 -164l1 -147l126 190l127 -186h-67l-60 81l-123 -174h-89l-122 169l-64 -74h-67l130 184l124 -190l-1 147l-122 159l-64 -74h-67l130 169l124 -150l-1 147l-122 131l-64 -78h-67
l130 168l124 -150l-1 156h90q-1 -153 1 -153q60 73 121 147z" />
    <glyph glyph-name="u10CB2" unicode="&#x10cb2;" horiz-adv-x="643" 
d="M447 233q43 85 43 129q0 41 -36 116q-40 84 -89 139l1 -514q45 58 81 130zM276 617q-48 -57 -87 -138q-36 -77 -36 -116q0 -42 43 -129q36 -73 79 -129zM283 2q-116 98 -169 181q-54 86 -54 180q0 91 52 176q51 83 162 177h90q115 -95 167 -180q52 -86 52 -180
q0 -93 -51 -176t-167 -178h-82z" />
    <glyph glyph-name="u10CC0" unicode="&#x10cc0;" horiz-adv-x="426" 
d="M364 0h-90l-1 285l-213 -1v71l216 217h90zM275 497l-145 -139l145 1v138z" />
    <glyph glyph-name="u10CC1" unicode="&#x10cc1;" horiz-adv-x="439" 
d="M377 0h-90l-1 271l-226 108v56l229 140h90zM288 516l-166 -101l166 -85v186z" />
    <glyph glyph-name="u10CC2" unicode="&#x10cc2;" horiz-adv-x="492" 
d="M395 0l-151 252l-153 -252h-86l189 302l-177 273h90l140 -224l140 224h86l-176 -272l190 -303h-92z" />
    <glyph glyph-name="u10CC3" unicode="&#x10cc3;" horiz-adv-x="917" 
d="M420 1q-28 20 -53 42q-23 19 -45 40l-148 -82l-98 91l47 45l66 -52l89 40q-37 33 -55 66q-23 41 -23 95q0 53 23 96q18 34 55 67l-96 39l-75 -87l-47 40q1 0 106 130l156 -82q21 21 50 45q21 18 48 38h75q28 -20 54 -42q21 -18 43 -40l154 81l111 -112l-45 -43l-77 76
l-99 -43q38 -34 56 -68q23 -42 23 -96q0 -53 -21 -93q-19 -35 -58 -69l92 -38l68 71l53 -38l-107 -117l-150 81q-21 -20 -43 -39q-27 -23 -54 -42h-75zM459 59q65 46 111 103q55 70 55 124t-56 126q-48 62 -110 102h-3q-62 -42 -110 -102q-56 -72 -56 -126t57 -126
q47 -60 109 -101h3z" />
    <glyph glyph-name="u10CC4" unicode="&#x10cc4;" horiz-adv-x="592" 
d="M149 413h-89l190 162h92l190 -162h-88l-101 93l-3 -506h-93l3 505z" />
    <glyph glyph-name="u10CC5" unicode="&#x10cc5;" horiz-adv-x="590" 
d="M263 0l-203 168h89l101 -92v429l-101 -92h-89l203 162h64l203 -162h-88l-102 93v-431l102 93h88l-203 -168h-64z" />
    <glyph glyph-name="u10CC6" unicode="&#x10cc6;" horiz-adv-x="593" 
d="M443 464l-293 -168v-181q128 75 293 170v179zM443 223q-146 -87 -293 -170v-53h-90v575h90v-216l293 168v48h90v-575h-90v223z" />
    <glyph glyph-name="u10CC7" unicode="&#x10cc7;" horiz-adv-x="431" 
d="M253 575v-240l118 71v-63l-118 -65q-2 -105 -2 -278h-89v232l-102 -57v63l103 59l-1 278h91z" />
    <glyph glyph-name="u10CC8" unicode="&#x10cc8;" horiz-adv-x="470" 
d="M461 403v-64l-169 -54l184 -285h-92l-157 252l-147 -252h-86q74 119 149 237l-105 -42v63l141 51q-87 134 -173 266h90l140 -224l140 224h86l-134 -216z" />
    <glyph glyph-name="u10CC9" unicode="&#x10cc9;" horiz-adv-x="446" 
d="M147 105q34 10 52 24l-96 78l43 40l96 -77q18 24 37 54q13 22 12 62q-3 73 -45 124l-97 -80l-46 41l96 77q-32 22 -89 28q-18 2 -36 2h-10l-4 93q72 -4 102 -14q38 -12 85 -59l75 75l61 -53l-80 -65q77 -73 77 -167v-3q0 -42 -11 -71q-8 -22 -24 -42q-13 -16 -43 -44
l84 -63l-57 -61l-73 73q-44 -44 -93 -62q-37 -13 -89 -15l-4 94q38 0 77 11z" />
    <glyph glyph-name="u10CCA" unicode="&#x10cca;" horiz-adv-x="476" 
d="M127 73q33 15 58 28q-63 42 -90 82q-28 43 -28 105q0 60 27 103q27 42 90 83q-26 14 -61 31q-26 12 -63 27l59 41q70 -33 119 -61q49 29 119 61l59 -41q-37 -15 -72 -32l-52 -25q63 -42 89 -83q28 -43 28 -105q0 -61 -27 -103t-91 -83q25 -13 68 -32q19 -8 53 -24
l-51 -47q-35 18 -57 29q-40 21 -66 37q-26 -16 -62 -35q-26 -14 -61 -31l-51 47q36 15 63 28zM300 203q18 34 18 86q0 49 -16 80q-17 32 -64 68q-46 -34 -63 -67q-17 -32 -17 -82q0 -49 16 -82q18 -34 64 -69q45 34 62 66z" />
    <glyph glyph-name="u10CCB" unicode="&#x10ccb;" horiz-adv-x="448" 
d="M276 582l-101 -61q101 -45 154 -103q59 -66 59 -152q0 -80 -53 -136q-47 -50 -146 -94l106 -57l-49 -41l-182 102q30 15 54 28q28 14 49 27l53 36q42 33 60 67q18 33 18 74q0 40 -17 72q-18 34 -61 67l-53 37q-22 14 -53 30q-22 12 -54 28l172 113z" />
    <glyph glyph-name="u10CCC" unicode="&#x10ccc;" horiz-adv-x="605" 
d="M261 0q-99 61 -147 124q-54 72 -54 162t54 161q48 63 147 124h83q98 -61 146 -124q55 -72 55 -162t-55 -161q-48 -63 -146 -124h-83zM396 425q-18 20 -43 42q-21 18 -49 40h-3q-29 -22 -52 -43q-22 -19 -40 -38l93 -94zM256 284l-86 88q-19 -39 -19 -86q0 -48 19 -87z
M454 285q0 47 -19 86l-86 -87l86 -85q19 39 19 86zM304 64q57 42 91 78l-93 94l-92 -94q34 -36 91 -78h3z" />
    <glyph glyph-name="u10CCD" unicode="&#x10ccd;" horiz-adv-x="573" 
d="M286 495l-195 -495h-86l226 575h101l236 -575h-86l-104 246l-95 -246l-87 1q148 334 148 340z" />
    <glyph glyph-name="u10CCE" unicode="&#x10cce;" 
d="M274 260l131 83v-62l-132 -82l-2 -199h-90v162l-121 -76v61l121 79v104l-121 -76v61l121 79v181h90l1 -147l133 83v-62l-132 -83z" />
    <glyph glyph-name="u10CCF" unicode="&#x10ccf;" horiz-adv-x="550" 
d="M275 186l112 104l-112 106l-112 -106zM215 435l-148 140h98l110 -108l110 108h97l-148 -140l143 -144l-143 -140l156 -151h-98l-117 119l-118 -119h-97l155 151l-142 139z" />
    <glyph glyph-name="u10CD0" unicode="&#x10cd0;" 
d="M405 579v-60l-132 -84l-2 -435h-90v399l-121 -76v61l121 79v112h90l3 -78z" />
    <glyph glyph-name="u10CD1" unicode="&#x10cd1;" 
d="M405 511l-132 -84l-2 -427h-90v391l-121 -76v61l344 199z" />
    <glyph glyph-name="u10CD2" unicode="&#x10cd2;" horiz-adv-x="391" 
d="M252 575h79l-2 -575h-90v507l-179 -138v66z" />
    <glyph glyph-name="u10CD3" unicode="&#x10cd3;" horiz-adv-x="547" 
d="M405 294l-133 221l-130 -224l130 -229zM226 0l-166 291l163 284h94l170 -281l-167 -294h-94z" />
    <glyph glyph-name="u10CD4" unicode="&#x10cd4;" horiz-adv-x="485" 
d="M296 0l-87 1l-6 495l-123 -161h-75l201 241l88 -1v-492l111 179l75 1z" />
    <glyph glyph-name="u10CD5" unicode="&#x10cd5;" horiz-adv-x="588" 
d="M583 157l-2 -79l-44 -76l-84 -2l-161 252l-163 -252l-78 2l-44 76l-2 79l90 -84q69 114 137 229l-134 205l-77 -85l2 79l44 72l88 2l140 -224l150 224q76 0 79 -2l44 -72l1 -79l-90 84l-124 -203l138 -232z" />
    <glyph glyph-name="u10CD6" unicode="&#x10cd6;" horiz-adv-x="575" 
d="M91 0h-86l236 575h93l236 -575h-86l-38 107l-43 -107h-75l76 195l-32 78q0 -1 -113 -273h-75l151 379l-47 116q0 1 -38 -109z" />
    <glyph glyph-name="u10CD7" unicode="&#x10cd7;" horiz-adv-x="584" 
d="M245 0q-84 61 -127 119q-58 77 -58 167t58 166q44 58 127 119h74q92 -61 140 -118q65 -78 65 -168q0 -89 -64 -166q-48 -58 -141 -119h-74zM368 425q-30 38 -84 82h-2q-78 -64 -99 -89q-15 -17 -29 -44q-37 -59 -19 -101q5 -23 30 -74zM284 64q90 76 122 119q28 37 28 70
q0 37 -33 116l-200 -227q15 -19 38 -40q18 -18 43 -38h2z" />
    <glyph glyph-name="u10CD8" unicode="&#x10cd8;" horiz-adv-x="455" 
d="M61 104v64l199 103l-199 100l-1 56l242 128h93l-2 -555h-93zM299 231l-176 -93l177 -78zM301 495l-183 -93l183 -93v186z" />
    <glyph glyph-name="u10CD9" unicode="&#x10cd9;" horiz-adv-x="410" 
d="M60 69h10q185 0 185 218q0 110 -47 164q-43 49 -126 49h-22v82q78 -2 142 -31q85 -37 120 -108q28 -57 28 -145q0 -157 -88 -237q-76 -85 -202 -68v76z" />
    <glyph glyph-name="u10CDA" unicode="&#x10cda;" horiz-adv-x="500" 
d="M362 72q-75 -72 -211 -72h-91v571h107q84 0 146 -32q61 -32 93 -92q34 -64 34 -159q0 -142 -78 -216zM298 447q-43 47 -126 47h-22v-417h10q185 0 185 211q0 106 -47 159z" />
    <glyph glyph-name="u10CDB" unicode="&#x10cdb;" horiz-adv-x="469" 
d="M171 52q148 14 148 234q0 110 -37 164q-34 49 -100 49h-20l-102 -76l1 67q63 58 101 90q69 -1 125 -29q74 -37 102 -111q20 -54 20 -139q0 -160 -72 -240q-64 -86 -175 -70q-38 26 -101 72v64l101 -76z" />
    <glyph glyph-name="u10CDC" unicode="&#x10cdc;" horiz-adv-x="532" 
d="M472 279q1 -3 0 -3q0 -44 -11 -73q-8 -24 -26 -48q-11 -14 -38 -44l-134 -109l-70 -2l-133 156l120 119l53 -52l-79 -73q1 -9 29 -31q52 -55 75 -32q17 7 79 66q19 33 26 48q21 36 14 88q-3 69 -36 123q-74 62 -108 71q-17 6 -46 1q-5 0 3 90q60 0 82 -7q43 -14 126 -109
q74 -78 74 -179z" />
    <glyph glyph-name="u10CDD" unicode="&#x10cdd;" horiz-adv-x="390" 
d="M326 433l-160 -254l164 -127l-65 -54l-205 179l160 256l-132 100l57 41z" />
    <glyph glyph-name="u10CDE" unicode="&#x10cde;" horiz-adv-x="484" 
d="M305 575h88l-195 -248l226 -327h-92l-182 279v-279h-90v575h90v-218z" />
    <glyph glyph-name="u10CDF" unicode="&#x10cdf;" horiz-adv-x="596" 
d="M303 451l-2 2q-20 17 -53 26q-20 5 -61 5q-5 0 3 90q63 0 80 -7q64 -26 109 -72l115 95l42 -53l-115 -85q51 -79 51 -173v-3q0 -44 -11 -75q-6 -18 -24 -43q-10 -15 -29 -42l118 -80l-42 -42l-117 80l-14 -12l-90 -60l-70 -2l-133 156l120 119l53 -52l-79 -73
q0 -4 23 -27q57 -57 107 -24q9 6 17 11l-61 32l42 41l54 -29q20 36 26 47q20 34 15 89q-5 61 -36 118l-49 -26l-42 41z" />
    <glyph glyph-name="u10CE0" unicode="&#x10ce0;" horiz-adv-x="503" 
d="M443 575v-575h-90v214l-293 -168v67l293 167v82l-293 -168v63l293 168v82l-293 -170v68l307 170h76z" />
    <glyph glyph-name="u10CE1" unicode="&#x10ce1;" horiz-adv-x="823" 
d="M417 59q65 47 111 107q55 72 55 128t-56 130q-48 65 -110 106h-3q-62 -43 -110 -106q-56 -75 -56 -130q0 -56 57 -130q47 -62 109 -105h3zM179 0l-58 39l95 88q-36 46 -49 96l-46 -53h-92l130 126q2 48 16 81q14 35 39 66l-120 -60l-68 1l387 191l396 -193l-68 6l-121 57
q26 -32 40 -67q15 -39 16 -82l130 -126h-93l-45 53q-7 -25 -21 -51q-11 -22 -28 -45l94 -88l-63 -39l-88 83l-119 -83h-65l-110 83z" />
    <glyph glyph-name="u10CE2" unicode="&#x10ce2;" horiz-adv-x="593" 
d="M443 0v343l-293 -168v-175h-90v575h90v-337l293 168v169h90v-575h-90z" />
    <glyph glyph-name="u10CE3" unicode="&#x10ce3;" horiz-adv-x="413" 
d="M60 141v79l293 211v-79z" />
    <glyph glyph-name="u10CE4" unicode="&#x10ce4;" horiz-adv-x="574" 
d="M483 0l-150 368q-31 77 -34 89q-2 9 -12 38q-10 -31 -14 -45q-3 -13 -24 -64l-159 -386h-85l236 575h92l236 -575h-86z" />
    <glyph glyph-name="u10CE5" unicode="&#x10ce5;" horiz-adv-x="212" 
d="M60 0v575h92v-575h-92z" />
    <glyph glyph-name="u10CE6" unicode="&#x10ce6;" horiz-adv-x="394" 
d="M244 575h90v-575h-90v331l-184 243h66l118 -161v162z" />
    <glyph glyph-name="u10CE7" unicode="&#x10ce7;" horiz-adv-x="713" 
d="M60 398l130 173l124 -158l-1 161h90l1 -161l122 158l127 -175h-67l-60 84l-123 -138l4 -340h-90l-4 340l-122 134l-64 -78h-67z" />
    <glyph glyph-name="u10CE8" unicode="&#x10ce8;" horiz-adv-x="492" 
d="M247 358q0 -5 140 217h86l-176 -272l190 -303h-92l-69 107l-64 -107h-76l106 172l-48 80l-153 -252h-86l189 302l-177 273h90l47 -77q3 -2 54 77h84l-96 -147z" />
    <glyph glyph-name="u10CE9" unicode="&#x10ce9;" horiz-adv-x="492" 
d="M473 575l-176 -272l190 -303h-141l-126 78l-2 79l137 -75l-111 170l-153 -252h-86l189 302l-177 273h90l140 -224l102 149l-137 -76l2 79q79 46 126 72h133z" />
    <glyph glyph-name="u10CEA" unicode="&#x10cea;" horiz-adv-x="602" 
d="M65 0l-5 575h77l154 -149l173 148l78 1v-575l-78 2l-173 151l-154 -154zM449 86v404l-156 -143l-142 144v-394l142 134z" />
    <glyph glyph-name="u10CEB" unicode="&#x10ceb;" horiz-adv-x="664" 
d="M297 304q-142 197 -144 198l8 -415zM183 578l156 -225l157 225l110 -1l-1 -576h-117l-151 253l-154 -253h-121l-2 575zM379 305l140 -221q0 1 -6 420z" />
    <glyph glyph-name="u10CEC" unicode="&#x10cec;" horiz-adv-x="688" 
d="M578 539l44 -48l-104 -91q47 -72 48 -139q0 -55 -31 -104l93 -100l-52 -56l-94 99q-36 -50 -89 -99h-105q2 4 4 4h-7q-51 47 -86 92l-91 -95l-43 52l95 99l-3 6q-17 26 -20 33q-1 1 -3 5q-11 22 -14 35l-2 7q-4 20 -4 34q0 20 9 47q7 23 17 40q3 6 19 32l-99 106l48 42
l90 -86q28 39 92 99h99q-2 -4 -3 -4h1q52 -47 87 -95zM436 171q36 49 36 99t-36 103q-32 46 -99 105q-65 -57 -96 -104q-34 -51 -34 -101t35 -100q31 -42 98 -99q66 57 96 97z" />
    <glyph glyph-name="u10CED" unicode="&#x10ced;" horiz-adv-x="462" 
d="M312 2l-1 288l-251 -117v398h90l-4 -293l256 116v-392h-90z" />
    <glyph glyph-name="u10CEE" unicode="&#x10cee;" horiz-adv-x="598" 
d="M290 426l172 147l76 2v-575h-90v490l-156 -143l-142 144v-491h-90v575h76z" />
    <glyph glyph-name="u10CEF" unicode="&#x10cef;" horiz-adv-x="593" 
d="M152 280l-2 -42l293 168v81l-290 -167zM443 343l-293 -168v-81l293 167v82zM150 23v-23h-90v575h90v-189l293 168v21h90v-575h-90v195z" />
    <glyph glyph-name="u10CF0" unicode="&#x10cf0;" horiz-adv-x="580" 
d="M335 432l118 142h67l-185 -219v-355h-90v358l-185 216h67l118 -142v143h90v-143z" />
    <glyph glyph-name="u10CF1" unicode="&#x10cf1;" horiz-adv-x="712" 
d="M525 571l127 -136h-67l-60 68l-122 -109l-4 -118l126 120l127 -137h-67l-60 65l-127 -131l1 -118l126 152l127 -148h-67l-60 64l-123 -143h-89l-122 139l-64 -59h-67l130 147l124 -152l-1 118l-122 127l-64 -59h-67l130 135l124 -120l-1 118l-122 105l-64 -63h-67
l130 135l124 -120l-1 124h90q-1 -122 1 -122q60 58 121 118z" />
    <glyph glyph-name="u10CF2" unicode="&#x10cf2;" horiz-adv-x="643" 
d="M447 186q43 69 43 104q0 32 -36 93q-40 67 -89 111l1 -412q45 46 81 104zM276 494q-48 -46 -87 -112q-36 -61 -36 -91q0 -34 43 -104q36 -58 79 -103zM283 1q-116 78 -169 145q-54 69 -54 144q0 73 52 141q51 67 162 142h90q115 -76 167 -145t52 -143q0 -75 -51 -141
t-167 -143h-82z" />
    <glyph glyph-name="u10CFA" unicode="&#x10cfa;" horiz-adv-x="208" 
d="M60 0v714h88v-714h-88z" />
    <glyph glyph-name="u10CFB" unicode="&#x10cfb;" horiz-adv-x="510" 
d="M301 0h-92l-204 714h85l129 -458q14 -50 22 -82q8 -39 14 -74q6 35 15 74q7 33 21 84l128 456h86z" />
    <glyph glyph-name="u10CFC" unicode="&#x10cfc;" horiz-adv-x="492" 
d="M395 0l-151 310l-153 -310h-86l189 372l-177 342h90l140 -280l140 280h86l-176 -340l190 -374h-92z" />
    <glyph glyph-name="u10CFD" unicode="&#x10cfd;" horiz-adv-x="529" 
d="M438 714h86l-204 -714h-110l-205 714h85l126 -451l-6 452h108l-7 -454z" />
    <glyph glyph-name="u10CFE" unicode="&#x10cfe;" horiz-adv-x="510" 
d="M209 720h88v-237l108 231h86l-177 -340l191 -374h-92l-116 238v-238h-88l1 240l-119 -240h-86l189 372l-177 342h90l108 -232q-6 184 -6 238z" />
    <glyph glyph-name="u10CFF" unicode="&#x10cff;" horiz-adv-x="510" 
d="M26 328v90l134 -2l-143 298h90l108 -272q-6 154 -6 278h88v-277l108 271h86l-138 -296l135 2v-90h-140l157 -330h-92l-116 268v-268h-88l1 270l-119 -270h-86l153 330z" />
    <glyph glyph-name="NameMe.127" horiz-adv-x="666" 
d="M573 0h-96v90l96 1v-91zM381 0h-96v90h96v-90zM189 0h-96v89l96 1v-90z" />
  </font>
</defs>
</svg>
