<?xml version="1.0" encoding="UTF-8" standalone="no"?>
<svg
   width="256"
   height="256"
   viewBox="0 0 256 256"
   fill="none"
   version="1.1"
   id="svg21"
   sodipodi:docname="poorna1.svg"
   inkscape:version="1.2.2 (732a01da63, 2022-12-09)"
   inkscape:export-filename="poorna1.png"
   inkscape:export-xdpi="96"
   inkscape:export-ydpi="96"
   xmlns:inkscape="http://www.inkscape.org/namespaces/inkscape"
   xmlns:sodipodi="http://sodipodi.sourceforge.net/DTD/sodipodi-0.dtd"
   xmlns="http://www.w3.org/2000/svg"
   xmlns:svg="http://www.w3.org/2000/svg">
  <sodipodi:namedview
     id="namedview23"
     pagecolor="#ffffff"
     bordercolor="#000000"
     borderopacity="0.25"
     inkscape:showpageshadow="2"
     inkscape:pageopacity="0.0"
     inkscape:pagecheckerboard="0"
     inkscape:deskcolor="#d1d1d1"
     showgrid="false"
     showborder="false"
     inkscape:zoom="1.8272727"
     inkscape:cx="-19.975125"
     inkscape:cy="105.34826"
     inkscape:window-width="1920"
     inkscape:window-height="991"
     inkscape:window-x="-9"
     inkscape:window-y="-9"
     inkscape:window-maximized="1"
     inkscape:current-layer="svg21" />
  <rect
     style="display:inline;fill:#ffe6d5;fill-opacity:1;stroke:#ffaaaa;stroke-width:3.08243;stroke-dasharray:none;stroke-opacity:1"
     id="rect1685"
     width="252.91756"
     height="252.91757"
     x="1.5412216"
     y="1.541214"
     ry="0" />
  <g
     clip-path="url(#clip0_519_849)"
     id="g14"
     transform="matrix(5,0,0,4.7740716,-152,-134.57394)">
    <rect
       x="37.5"
       y="33.5"
       width="35"
       height="35"
       rx="5.5"
       stroke="#000000"
       id="rect2" />
    <path
       fill-rule="evenodd"
       clip-rule="evenodd"
       d="M 72.2911,36.1683 C 74.4267,36.7375 76,38.685 76,41 v 30 c 0,2.7614 -2.2386,5 -5,5 H 41 c -2.7614,0 -5,-2.2386 -5,-5 V 41 c 0,-1.1889 0.415,-2.2809 1.108,-3.1391 0.1374,-0.7148 0.4016,-1.3844 0.7683,-1.9846 C 36.1513,36.9302 35,38.8306 35,41 v 30 c 0,3.3137 2.6863,6 6,6 h 30 c 3.3137,0 6,-2.6863 6,-6 V 41 c 0,-3.1488 -2.4256,-5.7311 -5.5102,-5.9803 0.3095,0.3489 0.579,0.7342 0.8013,1.1486 z"
       fill="#000000"
       id="path4" />
    <path
       d="m 71,68.5 3,5"
       stroke="#000000"
       stroke-linecap="round"
       id="path6" />
    <path
       d="M 38.4619,73.6586 39.8689,68"
       stroke="#000000"
       stroke-linecap="round"
       id="path8" />
    <path
       fill-rule="evenodd"
       clip-rule="evenodd"
       d="M 55.5,60 C 60.7467,60 65,55.7467 65,50.5 65,45.2533 60.7467,41 55.5,41 50.2533,41 46,45.2533 46,50.5 c 0,5.2467 4.2533,9.5 9.5,9.5 z m 0,4 C 62.9558,64 69,57.9558 69,50.5 69,43.0442 62.9558,37 55.5,37 48.0442,37 42,43.0442 42,50.5 42,57.9558 48.0442,64 55.5,64 Z"
       fill="#000000"
       id="path10" />
    <path
       fill-rule="evenodd"
       clip-rule="evenodd"
       d="M 55.5,52 C 58.5376,52 61,49.5376 61,46.5 61,43.4624 58.5376,41 55.5,41 52.4624,41 50,43.4624 50,46.5 c 0,3.0376 2.4624,5.5 5.5,5.5 z m 0,4 C 60.7467,56 65,51.7467 65,46.5 65,41.2533 60.7467,37 55.5,37 50.2533,37 46,41.2533 46,46.5 c 0,5.2467 4.2533,9.5 9.5,9.5 z"
       fill="#000000"
       id="path12" />
  </g>
  <defs
     id="defs19">
    <clipPath
       id="clip0_519_849">
      <rect
         width="110"
         height="110"
         fill="#ffffff"
         id="rect16"
         x="0"
         y="0" />
    </clipPath>
  </defs>
</svg>
